<svg width="148" height="32" viewBox="0 0 148 32" fill="none" xmlns="http://www.w3.org/2000/svg">
<path d="M118.58 30.9856L121.6 23.878L115.133 8.13757H119.465L123.796 19.5158L127.945 8.13757H132.368L123.034 30.9856H118.58Z" fill="black"/>
<path d="M106.948 24.3051C102.129 24.3051 98.4375 20.9495 98.4375 16.0688C98.4375 11.1881 102.159 7.86304 106.948 7.86304C111.738 7.86304 115.459 11.1881 115.459 16.0688C115.459 20.9495 111.768 24.3051 106.948 24.3051ZM102.312 16.0688C102.312 18.7532 104.294 20.7055 106.948 20.7055C109.602 20.7055 111.585 18.7532 111.585 16.0688C111.585 13.4149 109.602 11.4321 106.948 11.4321C104.294 11.4321 102.312 13.4149 102.312 16.0688Z" fill="black"/>
<path d="M89.9708 31.0771V26.7454L93.1128 24.9761L93.1433 8.13755H96.9564V27.447L89.9708 31.0771ZM92.5332 3.2263C92.5332 1.76207 93.6314 0.724915 95.0651 0.724915C96.4988 0.724915 97.597 1.76207 97.597 3.2263C97.597 4.66002 96.4988 5.69718 95.0651 5.69718C93.6314 5.69718 92.5332 4.66002 92.5332 3.2263Z" fill="black"/>
<path d="M76.5266 24V8.13758H80.3397V10.0899C81.1023 8.80868 82.658 7.86304 84.7019 7.86304C88.2099 7.86304 90.5282 10.4559 90.5282 13.5674V24H86.7152V14.7876C86.7152 12.7438 85.3119 11.4931 83.5427 11.4931C81.6209 11.4931 80.3397 12.8658 80.3397 14.7876V24H76.5266Z" fill="black"/>
<path d="M65.3116 27.6301C68.3011 27.6301 69.8568 25.7083 69.8568 23.5424V22.0172C68.9417 23.1764 67.1419 24.061 64.8845 24.061C60.7054 24.061 57.1669 20.9801 57.1669 15.9773C57.1669 10.944 60.7359 7.86304 64.8845 7.86304C67.0809 7.86304 68.9112 8.83919 69.8568 10.0899V8.13758H73.6699V23.1459C73.6699 27.386 70.894 31.2601 65.3116 31.2601C61.4375 31.2601 58.7226 29.0333 57.7159 26.5014L60.9189 24.7931C61.59 26.5014 63.2373 27.6301 65.3116 27.6301ZM61.041 15.9773C61.041 18.5397 62.8407 20.5225 65.4641 20.5225C68.1485 20.5225 69.8873 18.5397 69.8873 15.9773C69.8873 13.3844 68.1485 11.4321 65.4641 11.4321C62.8407 11.4321 61.041 13.3844 61.041 15.9773Z" fill="black"/>
<path d="M51.7506 24V8.13755H55.5637V24H51.7506ZM51.11 3.2263C51.11 1.76207 52.1777 0.724915 53.6419 0.724915C55.0756 0.724915 56.1738 1.76207 56.1738 3.2263C56.1738 4.66002 55.0756 5.69718 53.6419 5.69718C52.1777 5.69718 51.11 4.66002 51.11 3.2263Z" fill="black"/>
<path d="M43.1626 24.2746C39.136 24.2746 36.9091 22.1087 36.177 19.9734L39.319 18.4482C39.8071 19.6378 41.1493 20.919 43.3151 20.919C45.1759 20.919 46.1521 20.2784 46.1521 19.3938C46.1521 18.6922 45.603 18.2041 44.5353 17.9906L41.3933 17.411C39.014 16.9534 37.0312 15.6417 37.0312 12.7743C37.0312 9.81534 39.7766 7.86304 43.3456 7.86304C47.2807 7.86304 49.172 9.90685 49.8126 11.8591L46.7316 13.3539C46.4571 12.2557 45.2369 11.1575 43.2846 11.1575C41.7594 11.1575 40.7832 11.7676 40.7832 12.6523C40.7832 13.4454 41.4543 13.842 42.4 14.025L45.6335 14.6351C48.5314 15.1842 50.0567 17.0144 50.0567 19.2108C50.0567 22.1087 47.5553 24.2746 43.1626 24.2746Z" fill="black"/>
<path d="M27.9165 24.2746C22.7612 24.2746 19.6497 20.6445 19.6497 16.0688C19.6497 11.4321 22.9747 7.86304 27.8859 7.86304C32.9192 7.86304 35.7867 11.7371 35.7867 15.9163V17.4415H23.4933C23.9813 19.8209 25.7506 20.8885 27.9165 20.8885C30.3568 20.8885 31.8211 19.4853 32.2481 18.4177L35.1461 20.0954C34.536 21.6206 32.2786 24.2746 27.9165 24.2746ZM23.5848 14.391H31.8211C31.7295 12.9878 30.4178 11.1575 27.8554 11.1575C25.9336 11.1575 24.1644 12.2557 23.5848 14.391Z" fill="black"/>
<path d="M0.778496 24V2.64673H8.19113C14.6886 2.64673 19.2338 6.91738 19.2338 13.3234C19.2338 19.2718 14.7801 24 8.19113 24H0.778496ZM4.68309 20.4615H8.13012C12.2177 20.4615 15.1767 17.6855 15.1767 13.3234C15.1767 8.9917 12.2177 6.18527 8.13012 6.18527H4.68309V20.4615Z" fill="black"/>
<path d="M139.974 23.7V16H141.965L143.945 21.665L145.914 16H147.894V23.7H146.519V18.354L144.66 23.7H143.197L141.349 18.354V23.7H139.974Z" fill="black"/>
<path d="M135.409 23.7V17.342H133V16H139.259V17.342H136.85V23.7H135.409Z" fill="black"/>
</svg> 

